<svg xmlns="http://www.w3.org/2000/svg" version="1.1" xmlns:xlink="http://www.w3.org/1999/xlink" xmlns:svgjs="http://svgjs.dev/svgjs" width="643.754" height="592.638"><svg xmlns="http://www.w3.org/2000/svg" viewBox="0 0 643.754 592.638"><path fill="#fff" d="M328.21 27.226c144.1-.1 260.9 116.6 261 260.7.1 144.1-116.6 260.9-260.7 261s-260.9-116.599-261-260.7c-.1-144 116.6-260.9 260.7-261"></path><path fill="#100c08" d="M512.31 436.026c-2.5 2.7-5.6 1.6-7-2.4-.4 2.2-.9 4.3-1.7 6.4-1 2.2-2 4.3-3.3 6.4-.6 1.1-1.3 2.2-2 3.2s-1.5 2.1-2.3 3.1c-1.6 2.1-3.3 4.2-5.1 6.3-7.3 8.1-15.7 15.8-22 23.5l-2.9-6c-.4 1.6-1.1 3.1-2.1 4.4-1.2 1.5-2.5 2.8-3.9 4.1-1.6 1.4-3.2 2.7-5 3.9l-5.6 3.6c-7.5 4.8-15 9-16.9 15.2l-2.5-1.7-2.2 2.6c-1.3 1.6-3.2 3.5-5 5.5s-3.8 4.1-5.2 5.5l-2.5 2.4c-3.6 1.3-7.6-.6-8.9-4.3-.1-.2-.1-.4-.2-.6-4.5 2.1-8.9 3.8-13 5.4-4.2 1.4-8.2 2.7-12.1 3.7s-7.6 1.5-11.2 1.9c-3.4.2-6.8.2-10.3 0-.8 4.5-6 7.8-13.1 10.5-10.8.9-21.7 1.3-32.9 1.2l-6.7-.2c-49.7-1.8-97.7-18.1-138.2-46.9-10.5-7.5-28-18.4-35.6-23.8l-21.1-15.6-15.8-13.4c-2.1-2.2-4.8-4.7-7.7-7.3-2.8-2.6-4.9-4.3-8.4-7.3-3.2-2.7-6.4-5.8-9.6-8.7-3.1-2.9-6.1-6-8.8-9.2l7.6 16.6c2.3 4.5 5 8.9 8 13 2.3 2.3 4.5 4.6 6.4 6.5 1 2.5 1.8 5.1 2.3 7.7.3 1.5.4 2.9.6 4.4l26.3 32.8 19.5 19.8c.9 1.4.4 7.2 1.2 8.5l2.4 3.7c1.5 2.3 2.9 4.5 4 6.6l6.3 5.1c.6 3.4 11.2 10.2 19.5 15.9l73.3 30.7c1.1-.4 2.2-.7 3.4-.8 1.5-.2 3-.4 4.4-.3 4.4.2 8.7.7 13 1.5l62.4 5.1c4.2.4 8.5.5 12.8.7s8.6 0 12.7-.2c4-.3 8-.9 12-1.8 1.8-.4 3.7-.9 5.4-1.5s3.3-1.4 4.9-2.2c2.8-.7 5.6-1 8.5-.7 3.1.1 6.6.4 10.4.6l22.6-10c16 0 32-2.4 47.3-7l45.3-13.9c4.1-4.8 8.7-9.2 13.6-13.2 3.2-2.5 6.8-4.4 10.6-5.8l27.5-25.9c.8-1.7 1.5-3.3 2.2-5s1.4-3.4 2.3-5.2 2-3.7 3.3-5.9c3.9-5.7 8.3-11 13.2-15.9l67-207.2c-.1-3.6-.3-7.3-.4-10.9-.1-1.8-.1-3.6-.2-5.4l-.4-5.3-.8-10.5-1.1-10.3-2.9-.3c.1-1.5.2-2.9.2-4.4s-.2-2.9-.3-4.3c-.3-2.9-.8-5.8-1.4-8.6-.6-2.9-1.4-5.8-2.4-8.5-1-2.8-2-5.7-3.1-8.5s-2.5-5.6-3.7-8.5-2.5-5.7-3.8-8.6-2.7-5.8-3.9-8.7-2.4-6-3.7-9.1l.4 2.1c.2 1.2.5 2.9.8 4.5l.9 6.6c-4.7-5.5-8.8-11.6-12.2-17.9-1.5-2.8-3.2-5.6-5-8.4-1.9-3.1-4-6.1-6.4-8.9l.8-5.9-19.7-15.9c-1.9-4.4-4.3-8.6-7.3-12.4-3.5-4.3-7.3-8.4-11.3-12.3-4.1-3.7-8-7.3-11.4-10s-6-4.9-7.3-6.1c-1.4-6.2 8 .6 11.4.7-3.3-2.4-6.8-4.4-10.6-6-3-1.2-5.7-1.9-8.4-2.7-3-.9-6-2-8.8-3.4-4.8-1.8-9.4-4.1-13.7-6.8l-40-21.3c-15.1-6.2-30.5-11.5-46.2-15.9-39.1-8.9-79.3-11.7-119.2-8.3l-33.7 7.9c-8.7 3.1-20 6.8-24.7 8.7-1.9.8-3.9 1.3-5.8 2l-5.7 2.3c-3.8 1.6-7.5 3.1-11.1 4.8s-7.1 3.7-10.6 5.5c-1.7.9-3.5 1.8-5.1 2.8l-4.9 3.1c-3.2 2.1-6.4 4.2-9.4 6.3-7.7 5.8-14.8 12.3-21.3 19.4-13.6 9.4-26.3 20.1-37.9 31.8l-2.5 2.6c-1.5 1.6-3.1 3.2-4.6 4.9l-9.4 11.2c-2.4 3.2-4.7 6.6-6.8 10l-1.4 3.3c-.4 1.1-.8 2.3-1.2 3.4l-.5 1.5-1.7 5-6.5 26.5 11-15.1c1-1.6 2.2-3 3.2-4.5l6.5-8.9c4.7-5.7 9.2-11.5 14.2-16.9 4.8-5.6 10.2-10.6 15.3-15.9l8.2-7.4c1.4-1.2 2.7-2.5 4.1-3.7l4.3-3.5 4.3-3.5c1.4-1.2 2.9-2.3 4.4-3.4l9-6.4c1.5-1.1 3.1-2 4.6-3l4.7-2.9 4.7-2.9c1.6-1 3.2-1.8 4.9-2.7l9.8-5.2 10.1-4.6c1.7-.8 3.3-1.6 5.1-2.2l5.2-2 5.2-2c1.7-.6 3.4-1.3 5.2-1.8l1.3-.6c2.9-1.3 6.1-2.7 9.4-4 .9-.3 1.7-.7 2.6-1l2.7-.9 5.6-1.7 5.8-1.8c2-.6 4-1 6.1-1.5 4.1-.9 8.4-2 12.7-2.8 9.9-1.8 20.1-3.1 30.1-4h6.4c-5.6.5-11.1 1.3-16.6 2.5-3.1.8-7.9 1.2-13 2.1l-7.8 1.2c-2.6.5-5.1 1.1-7.4 1.7l-6 1.8c-1 .3-2.1.6-3.1.9s-4.8 1.9-5.8 2.3l-7.2 2.9c-2.2 1.1-4.5 1.8-6.8 2.7s-3.6 1.5-6 2.4l-3.3 1.3c-1.1.5-2.2 1-3.4 1.5l-6.5 2.9c-3.8 1.7-7.5 3.6-11.1 5.7l-12.3 7.4c0 .1 4.1-1.8 5.8-2.7l7.4-3.5 5.2-2.5c1.9-1 4-1.7 6.1-2.6 4.4-1.8 9.2-4 14.6-5.7 23.7-8.5 48.5-13.4 73.7-14.6 4.7.6 2.7 2.5-1.1 4.3-1.9 1-4.3 1.8-6.5 2.6-1.9.8-3.9 1.3-5.9 1.8-.6.2-1.4.4-2.1.6 3.5-.2 6.9-.6 10.4-.7l10.3-.3c10.9-.7 21.9-.7 32.8.1 17.9 1.2 35.7 4.3 53 9.3l-7.1-1.5c-2.4-.5-4.7-1-7.1-1.3s-4.7-.6-7-1-4.8-.6-7.3-1l-7.7-1.1-7.8-.9-4-.5-4-.4-8.2-.8-8.4-.5c-1.4-.1-2.8-.2-4.3-.2h-4.3c-2.9 0-5.8-.2-8.7-.1-12.2.9-24.4 2.6-36.3 5.1l-.9.3c43.8-6 88.3-2.8 130.8 9.3l-7-1.8c-2.3-.6-4.7-1-7-1.5-23.2-4.8-46.8-7.8-70.5-8.9l-5 .2c-1.7 0-3.3.1-5 .3l-10.2.7c-6.5.9-13.1 1.7-19.5 3.1l-4.8.9c-1.6.3-3.2.8-4.7 1.2l-9.4 2.4c-1.6.3-3.1.9-4.6 1.4l-4.6 1.4-4.5 1.5-2.2.7-2.2.9c17.1-5 34.6-8.4 52.3-10.3 32.9-3.9 66.3-1.3 98.2 7.7 31.1 8.8 60.3 23.6 85.7 43.7 3.3 2.2 6.7 4.3 9.8 6.7s6.1 5 9 7.7c13.9 13.5 26 28.7 35.9 45.2-.6-3.2 3.8 4.9 4.2 4.7 5.5 8.2 10.2 17 13.9 26.2 3.9 10 7.1 20.2 9.5 30.6.7 3-.4 3.1.3 6.2 1.9 13 3 26.1 3.1 39.2 0-.4.1-.9.1-1.2v-.5l2.6-6.3c-.4-3.3-.7-6.7-1.3-10s-1.1-6.7-1.8-10-1.5-6.6-2.3-10l-.2-1.1c-3.3-13-7.7-25.7-13.2-38l-3.4-7.3v-.7s-.3-.5-.9-1.4l-.1-.1-4.3-8.1c-.7-1.5-1.5-2.9-2.4-4.2l-2.5-4.2c-.8-1.4-1.6-2.8-2.5-4.1l-2.7-4c-3.4-5.4-7.4-10.5-11.2-15.5l-6-7.3c-2-2.4-4.2-4.7-6.3-7-8.5-9.2-17.7-17.7-27.5-25.4-2-1.4-4.2-2.5-6.3-3.7 24.8 20.7 46.3 45.1 63.6 72.3l2 3 3.9 7.2c1.1 1.5 1.9 2.9 2.5 3.8l.9 1.5v-.7c.6 1.1 1.2 2.3 1.6 3.5 5.7 13 10.4 26.4 14.1 40.2 2.1 12.6 3.3 25.3 3.5 38-2.4-.2-1.5-1.2-3.4.9-1.8-3.5-3.3-7-4.7-10.7-1.5-3.6-3-7.2-4.4-10.6s-2.9-6.5-4.1-9.2c-.7-1.4-1.3-2.6-1.9-3.7-.6-1-1.2-1.9-1.9-2.8l.4 1c.3.7.7 1.6 1.1 2.8l3.1 8.6c.6 1.6 1.1 3.1 1.5 4.7l1.2 4.1 1.2 4c-1.2-.2-1.9.8-2.7 2.3s-1.5 3.5-2.2 5c-1.5 3.1-3.1 4.5-6-1.8-.1 12.7.8 26.4 1.3 40.2.7 13.4.6 26.7-.2 40.1 2.3-3.1 3.9-7.4 6.5-6.1.1 6.7-1.4 9.4-3.2 10.6s-3.9 1-5.7 1.9c.1 1.1.3 2.2.5 3.3.2.9.6 1.8 1 2.7.8 1.5 1.8 2.9 3 4.1 2.8 2.4 5.1 5.2 6.9 8.4-3.2 4.4-5.4 7.9-7.2 10.9-1.9 2.9-3.4 5.4-4.8 7.7-1.5 2.4-3.3 4.7-5.3 6.8-2.7 2.8-5.7 5.3-9 7.4l7.1 2.5c-11.5 7.8-22.1 16.9-31.6 27l-4.4 4.2Z"></path><path fill="#e30613" d="M98.81 460.426c-4.2-5.5-8.7-10.7-13.5-15.7-.5-.4-8.4-8.3-8.8-8.7.8 2.1 9 13.2 9.4 15.2.3 1.5.4 2.9.6 4.4s.2 2.9.3 4.3c.1 2.9.2 5.8.4 8.8.3 3.3.9 6.5 1.8 9.6l.7-4.9 1-7.5c5.2 3.4 9.2 8.5 11.3 14.4 2.9 5.4 7.8 9.6 13.5 11.7l-13.4 2.5c4.1 0 9.5 4.8 12.5 8.9 3.7 5.6 7 11.4 9.7 17.6 0 0-.1-12.1 2.2-12.8 2.3-.7 4.3 4.4 4.3 4.4l2.5 4.2 2.4 3.7c1.5 2.3 2.9 4.5 4 6.6 3.2 4.6 5.2 9.9 5.9 15.4l.4-10.3c.6 3.4 11.2 10.2 19.5 15.9s14.8 10.6-.3 12.1c2.1.2 9 .4 11.6.5 3.3.2 6.5 1.2 9.2 3l-11 4.3c12.1 3.7 34.4 10 36.4 15.2 2.2 5.2-16.9 1.8-20.9 1.2 3.1 1.4 13.3 5 15.8 5.8 2.2.7 4.5 1.3 6.9 1.8 3.1.7 6.4.8 9.6.3 3.7-.7 6.9-3 8.7-6.3 1.6-3.2 4.2-5.7 7.4-7.2 1.1-.4 2.2-.7 3.4-.8 1.5-.2 3-.4 4.4-.3 4.4.2 8.7.7 13 1.5l-10 5.1s9.5-1.1 14.6-1.9c2-.3 4.1-.9 6-1.6l5.4 4c1.4 1 2.7 1.9 3.8 2.6l1.7 1.2c12.8-6 27.2-7.5 40.9-4.3 4.2.4 8.5.5 12.8.7s8.6 0 12.7-.2c4-.3 8.1-.9 12-1.8 1.8-.4 3.7-.9 5.4-1.5s3.3-1.4 4.9-2.2c2.8-.7 5.7-1 8.5-.7 3.1.1 6.6.4 10.4.6 1.9.1 3.9.2 5.9.3s4.2-.2 6.4-.4c7.9-1.4 15.7-3.4 23.3-6l-13.1-3.9c16 0 32-2.4 47.3-7 19.4-4.7 38.4-6.6 50.7-8.5-16.2-1.2-8.3-2.8-5.4-5.4 4.1-4.8 8.7-9.3 13.6-13.2 3.2-2.5 6.8-4.4 10.6-5.8 3.3-1.2 6.6-1.7 9.9-2.6 3.5-1.3 6.7-3 9.8-5.1 4.7-3.6 8.7-8.1 11.7-13.2l-11.7 8.6c-5.9 3.1-12.3 6.5-8.2 2.5 4.9-2.9 9.3-6.7 12.8-11.2 1.2-1.6 2.3-3.2 3.2-5 .8-1.7 1.5-3.3 2.2-5s1.4-3.4 2.3-5.2 2-3.7 3.4-5.9c3.9-5.7 8.3-11 13.2-15.9 3.6-3.6 2 2.1.5 5.1l21-36.6c10.3-17.6 18.8-36.3 25.1-55.8 2.1-5.7 3.3-10.7 5.3-16.6 1-2.9 2-5.9 3-9l2.6-9.5 1.3-4.9 1.1-5 2.1-10.2c.5-3.5 1.1-7 1.7-10.5l.8-5.3.6-5.4c.4-3.6.8-7.2 1.1-10.9s.4-7.3.6-11c.1-1.8.2-3.7.2-5.5v-5.5c0-3.6.1-7.3 0-11l-.4-10.8c-.1-1.8-.1-3.6-.2-5.4l-.4-5.3-.8-10.5c-.4-3.5-1.1-13.5-1.5-16.9l-2.5 6.3c.1-1.5.2-2.9.2-4.4 0-1.4-.2-2.9-.3-4.3-.3-2.9-.8-5.8-1.4-8.6-.6-2.9-1.4-5.8-2.4-8.5-1-2.8-2-5.7-3.1-8.5s-2.5-5.6-3.7-8.5-2.5-5.7-3.8-8.6-2.7-5.8-3.9-8.7l-3.7-9.1.4 2c.2 1.2.5 2.9.8 4.5l.9 6.6c-4.7-5.5-8.8-11.5-12.3-17.9-1.5-2.8-3.2-5.6-5-8.4-1.9-3.1-4-6.1-6.4-8.9l.6-4.3.1-.5.1-1c.4-3 6.1-.7 6.1-.7-3.7-4-7.8-7.7-12.1-11-1.2-.7-2.6-1.1-4-1-3.5.4-7-.7-9.7-3-1.9-4.4-4.3-8.6-7.3-12.3-1.3-1.6-2.6-3.1-4-4.7l-.6-.7c-2.2-2.4-4.4-4.8-6.7-7-4.1-3.7-8-7.3-11.4-10s-6-4.9-7.3-6.1c-1.4-6.2 8 .6 11.4.7-3.3-2.4-6.8-4.4-10.6-6-3-1.2-5.7-1.9-8.5-2.7-3-.9-6-2-8.8-3.5-1.4-.7-3-1.5-4.6-2.5l-3.2-2.1-2.5-1.4-43.3-22.2c-15.1-6.2-30.5-11.5-46.2-15.9-49.7-15.8-103.1-15.9-152.9-.3 19.9-4.9 40.4-6.8 60.9-5.6-2 0-6 0-8 .1s-2.1.3-4.2.4l-6.2.4c-2.1.1-4.1.2-6.2.5l-12.2 1.4c-4.1.7-8.2 1.4-12.4 2.1l-6.1 1-6.1 1.4c-4.1 1-8.1 2-12.2 3-4 1.3-8 2.5-11.9 3.8-2 .7-3.9 1.3-5.8 2l-5.7 2.3c-3.8 1.6-7.5 3.1-11.1 4.8s-7.1 3.6-10.6 5.5c-1.7 1-3.5 1.8-5.1 2.8l-4.9 3.1c-3.2 2.1-6.4 4.2-9.4 6.3-8 6.1-16.1 11.9-23.5 18.4-12.5 10.5-23.9 20.9-35.7 32.9l-2.5 2.6c-1.5 1.6-3.1 3.2-4.6 4.9l-9.3 11.2c-2.4 3.2-4.7 6.6-6.8 10l-1.4 3.3-.1.2-2.4 6.7-1 2.9-1.4 4.8c-.4 1.5-.7 3-.9 4.6h.1c2.7-4 5.5-7.9 8.3-11.7l2.9-3.9c6.1-7.9 12.5-15.6 19.3-22.9l7.5-7.5c2.9-3 5.9-5.9 8.9-8.9l8.8-7.9c1.5-1.3 2.9-2.7 4.4-3.9l4.6-3.7 4.6-3.7c1.5-1.3 3.1-2.5 4.7-3.6l9.7-6.9c1.6-1.2 3.3-2.2 5-3.3l5.1-3.1 5-3.1c1.7-1 3.5-1.9 5.2-2.9l10.5-5.6 10.8-5c1.8-.8 3.6-1.7 5.5-2.4l5.6-2.1 5.6-2.1c1.9-.7 3.7-1.4 5.6-2l1.4-.6c3.1-1.4 6.5-2.9 10.1-4.3.9-.4 1.8-.8 2.8-1.1l2.9-.9 6-1.9 6.2-1.9c2.1-.7 4.3-1 6.5-1.6 4.4-1 9-2.1 13.6-3 8.8-1.9 17.6-3.2 26.5-4 3.1-.2 10.7-.3 12.7-.2-6.2.7-12 2-17.8 2.7-3.4.4-8.5 1.3-13.9 2.3l-8.4 1.3c-2.8.6-5.5 1.2-8 1.8l-6.4 2c-1.1.3-2.2.6-3.4 1s-10 3.3-11.1 3.7l22.8-5.4c-3.8 1.5-7.8 2.7-11.8 3.5l-12.9 4c-2.4.7-4.8 1.6-7.3 2.5l-7.5 2.8-3.8 1.4c-1.2.5-2.4 1.1-3.6 1.6-2.4 1.1-4.7 2.1-7 3.2-4.1 1.8-8.1 3.8-12 6.1l-22 13.3 15-8.1 7.9-3.8 5.6-2.7c2-1 4.3-1.8 6.6-2.9 4.7-1.9 9.9-4.3 15.7-6.2 25.5-9.2 52.1-14.5 79.2-15.7 5 .6 11.1.3-1.2 4.6-2.3 1-4.6 1.7-7.1 2.2-4.6.4-9.1 1-13.6 2-.7.2 10.1.4 9.3.6 3.7-.2 3.1 0 6.8-.2s7.5-.5 11.1-.6c7.4-.4 14.8-.3 22.3-.2l-9.5-.7c-2-.1-8.4 0-10.3-.1 2.1-.1 9.9-1.3 12.8-1.6 3.9-.4 7.8-.4 11.7-.5 7.3.5 14.6 1.4 21.8 2.7 8.3 1.3 16.6 3.6 24.8 5.6 6.4 1.4 18.7 5.1 25 6.9l-13.5-3.2c-2.5-.4-4.7-.8-7-1.3-.4-.1-11.5-2.6-14.7-3.1l-20.2-2.9-6.4-.5c-2.9-.3-3.9-.4-6.9-.7-3-.3-4.2-.3-7.2-.5-1.5-.1-7-.3-8.5-.3s-3 .1-4.6.1c-3.1 0-6.3 0-9.5.1l-22-.7c-9.1.9-18.1 2.4-26.9 4.5-3.8.9-7.3 1.7-12.3 3.2-4.6 1.4-9.1 3.1-13.5 5l-23.2 11.8c3.2-1 20.6-7.1 24-8 3.4-1.2 8.6-2.7 12.1-3.8l5.9-1.6c1.8-.5 3.7-.9 5.5-1.4 3.7-.9 5.4-.9 9.1-1.7 2.1-.4 6.7-1.2 6.4-1.1 8.1-1.1 17-1.8 28.7-2.5l10.2-.1c-1.8 0-3.6.1-5.4.3l-10.6.9c-7 1-14 1.8-20.9 3.3l-2.6.5c5.5-.6 11-1 16.2-1.2.9 0 1.8.3 2.5.8h.4c21-2.3 42.1-2.8 63.1-1.6l-13.3-1.7c-7.8-.8-15.9-1.4-24.1-1.6 30.8-1 61.6 3.5 90.9 13.2l-7.5-2c-2.5-.7-5-1.1-7.6-1.6-9.8-1.8-20.4-3.7-31.7-5.4 6 1.2 11.9 2.6 18.2 4.1 6 1.5 11.8 3.2 17.6 4.8 33.5 9.4 64.7 25.4 92 46.9 3.5 2.4 7.2 4.6 10.5 7.2 3.4 2.6 6.6 5.3 9.7 8.2 13.4 11.4 25 24.6 34.6 39.3 3.5 5.2 5.7 7.9 8.9 13.4 5.8 9.2 10.7 18.9 14.5 29.1 3.9 10.2 7 20.7 9.3 31.3.8 3.2.8 4.3 1.6 8.3 4.7 12.7 7.8 26 9 39.5-.8-.2-1.5-.3-2.3-.4v-.5l-.6-5.4c-.5-3.6-.7-7.1-1.4-10.7s-1.2-7.1-1.9-10.7l-2.5-10.7-.3-1.2c-3.6-13.9-8.3-27.6-14.1-40.8l-4.8-10.1-4.6-8.7c-.8-1.6-1.7-3.1-2.6-4.5l-2.7-4.5c-.9-1.5-1.8-3-2.7-4.4l-2.9-4.3c-3.7-5.8-7.9-11.2-12-16.7l-6.5-7.9c-2.1-2.6-4.5-5-6.8-7.6-9.1-9.9-19-19-29.6-27.3-2.1-1.5-4.5-2.7-6.7-4 26.7 22.2 49.7 48.4 68.3 77.7l2.1 3.3c-1.4-1.9-2.9-3.9-4.5-5.8l-4.7-5.7c-1.5-1.8-3-3.4-4.3-4.8l-4.2-4.6 4.3 5.1c1.2 1.6 2.9 3.3 4.3 5.3l4.7 6.3 2.4 3.2 2.2 3.2 3.9 5.7c.9 1.4 1.7 2.8 2.4 4.2l4 8.1c5.4 12.9 10.1 26.1 14 39.6 3.4 12.9 5.8 26.1 7.3 39.4-2.6-.5-5.3.5-7.1 2.4-1.9-3.7-3.6-7.6-5.1-11.5-1.7-3.9-3.3-7.7-4.7-11.4s-3.1-7-4.4-9.9l-2-4c-.6-1-1.3-2-2-3l.5 1.1c.3.7.8 1.7 1.2 3l3.3 9.2c.6 1.7 1.2 3.4 1.6 5l1.3 4.4 1.3 4.3c-1.2-.2-2.1.9-2.9 2.5s-1.6 3.7-2.4 5.4c-1.6 3.3-3.4 4.9-6.5-2-.1 13.7.8 28.4 1.4 43.2.7 14.3.6 28.7-.3 43 2.5-3.3 4.2-7.9 7-6.6.1 7.2-.9 11-2.5 12.5-1.9 1.8-4.8 2.2-7 .8.1 1.2.3 2.4.6 3.6.2 1 .6 1.9 1 2.9.8 1.6 1.9 3.1 3.2 4.4 2.5 2.6 9 4.3 7.4 9-3.4 4.8-5.8 8.5-7.7 11.7-2.1 3.1-3.6 5.8-5.2 8.3-1.6 2.6-3.5 5.1-5.7 7.2-2.9 3-6.1 5.7-9.6 8l7.7 2.7c-2.4 1.6-4.3 3.7-5.5 6.3-.8 2-1.4 4-1.6 6.2-.2 2.2-.7 4.4-1.5 6.6-1.2 2.7-3.2 5.1-5.6 6.9-1.9-.3-.5-6 .2-10.6-1.2 4-4.2 7.3-8.2 8.8-3.8 1.4-6.8 4.5-8.1 8.4l-.8-6.5c-.4-3.2-.9-6.3-.9-6.3-1.3 1.9-2.6 4.1-4 6.2-1.2 2-2.5 3.9-4 5.6-2.7 2.9-5 3.8-6.5-.4-.4 2.4-1 4.7-1.9 6.9-1 2.3-2.2 4.6-3.5 6.8-.7 1.2-1.4 2.3-2.2 3.5s-1.7 2.2-2.5 3.4c-1.7 2.2-3.6 4.5-5.5 6.7-7.9 8.7-16.9 17-23.7 25.2l-3.1-6.4c-.4 1.7-1.2 3.3-2.3 4.8-1.2 1.6-2.6 3.1-4.2 4.4-1.7 1.5-3.5 2.9-5.3 4.2l-6 3.9c-8.1 5.1-16.2 9.7-18.1 16.3l-2.7-1.8-2.3 2.8c-1.4 1.7-3.4 3.8-5.4 6s-4 4.4-5.6 5.9l-2.7 2.6c-3.9 1.4-8.2-.7-9.6-4.6-.1-.2-.1-.4-.2-.6-4.8 2.2-9.5 4.1-14 5.8-4.5 1.5-8.9 2.9-13 3.9-4.2.9-8.2 1.6-12 2-3.7.3-7.3.2-11-.1-.9 4.8-6.5 8.3-14.1 11.2-11.6 1-23.3 1.4-35.3 1.3l-7.2-.2c-53.3-1.9-105-19.4-148.5-50.4-11.4-7.9-22.2-16.6-32.3-26l-15.8-7.8c2.5 2.2 11.8 10.2 14.1 12.1l6.5 5.5c3 2.1 5.6 4.6 8 7.4 1.2 2.4-3.3-.2-9.8-4.7s-14.6-11.3-21-16.6l-21.1-20.3Zm282.5-444c21.6 1.8 42.9 6.7 63.1 14.7 1.1.4 2.2.9 3.4 1.3l-1.3-.4c-4.5-1.3-10.7-2.7-16.7-4.2-3-.8-6.1-1.4-9-2l-7.8-1.5-5.5-1.1-2.1-.3 1.2.5c.8.3 1.9.8 3.1 1.4l6 2.8c-3.2-1.2-6.4-2.3-9.8-3.4l-9.8-2.9-5.2-1.5-9.6-3.4Zm71.9 18.1c11.3 4.6 22.4 9.8 33 15.1 20.5 10.5 39.7 23.5 57 38.7 4.3 3.9 8.8 7.8 12.8 12 2.1 2.1 4.2 4.1 6.2 6.2s4 4.3 6 6.4 3.9 4.3 5.8 6.5l5.7 6.6 5.4 6.8 5.2 6.8c2.4 3.3 4.6 6.8 6.5 10.4 2 3.9 4.1 7.8 5.7 10.9-6-10-12.9-19.5-20.4-28.5-7.2-8.8-15.1-16.9-23.5-25.4-14.8-14.1-30.8-26.9-47.8-38.3l-3.3-2.2c-1.1-.7-2.3-1.4-3.4-2.1l-5.6-3.4c-5.5-3.6-11.2-6.9-17-10.4-.8-.5-1.7-.9-2.5-1.3l-25.8-14.8Z"></path><g stroke="#fff" stroke-miterlimit="10" stroke-width=".75"><path d="M184.975 186.776c0 .7-.1 1.4-.1 2 0 40.5-.2 81.1.1 121.6.1 15.2-4.7 28.3-13.9 40.1-5.4 6.9-11.8 13-18.9 18.2-.4.3-.8.5-1.4.9.6-3.1 1.1-5.9 1.6-8.7 2.2-12.6 3.5-25.2 3.4-38-.1-37.1 0-74.2 0-111.2 0-5.2-.7-10.2-2.1-15.2-1-3.5-2.3-6.9-4.6-9.7h35.9ZM.375 403.676c.2-.1.5-.1.7-.3 17.4-10.5 33.5-22.7 47.3-37.8 18-19.7 29.6-42.7 34.7-68.9 1-5 1.1-10.3 1.6-15.4.1-1.3-.4-1.6-1.7-1.6h-45.3c-2.2-9.9-3-11.5-7.7-16.1h118.2c.3 4.9-1 9.1-4.9 12.3-3 2.4-6.5 3.5-10.2 3.6-10.9.2-21.7.1-32.6.2h-2c.4.4.6.7.8.9 1.7 1.4 3.3 2.8 5 4.1.9.7.8 1.3.2 2.1-.2.3-.5.5-.8.7-4 2.7-6.2 6.5-7.6 11-2.7 8.7-5.1 17.4-8.4 25.9-11.5 29.6-31.4 52.4-58.1 69.6-8.5 5.5-17.4 10.2-26.6 14.5-.3.1-.6.3-1.1.5l-1.5-4.5v-.8ZM574.375 359.076c-.1.2-.2.4-.2.7-1.4 6.8-6 10.4-12.6 11.8-2.5.5-5.2.6-7.8.7-1.2.1-2.4 0-3.8 0v1.9c-.1 4.9-.2 9.8-.5 14.6-.1 1.7-.6 3.5-1.2 5.1-2.1 6.4-6.5 10.7-13 12.8-5.6 1.8-11.3 1.4-17.2 1.4v-84.6h32v30.6c.7 0 1.2.1 1.7.1h20.9c.6 0 1.2.1 1.7.1v4.8ZM286.475 381.976h-59.3v-16h65.6c1.3 0 1.9-.3 2.4-1.5 2.4-5.5 4.2-11.2 5.3-17.2.1-.3.1-.7.1-1.2h-73.4v-16.4h95.9c-2.1 34.7-18.5 61.9-45.1 84.1h87.5c1.5 0 3 0 4.4.2 2.2.2 3.2 1.2 3.6 3.4.1.8.2 1.7.2 2.5v20.5c0 1.5-.1 3-.4 4.5-1.2 5.7-4.9 8.8-11.6 9.7-2.5.3-5.1.5-7.6.5h-66c-1.3 0-1.9.6-1.9 1.9v11.4c0 1.9.4 2.3 2.3 2.4h79.2c2.1 0 3.4-.8 4.5-2.5 2.1-3.5 3.1-7.3 3.7-11.3.3-2.3.6-4.5.9-6.8.1-.5.3-1 .4-1.5.2 0 .3-.1.5-.1.3.6.8 1.1.9 1.7.6 3.6 1.2 7.2 1.7 10.8.3 2 1 3.5 2.7 4.6.1.1.2.1.2.2 4.5 3.8 4.1 2.1 2.4 8-.5 1.9-1.4 3.7-2.2 5.4-2.6 5.6-7.2 8.5-13.3 9.1-2.5.3-5 .3-7.5.3h-91.4c-2.1 0-4.2-.3-6.2-.8-6.8-1.7-10.9-6.6-11.4-13.6-.2-3.1-.2-6.2-.2-9.4v-22.2h83.9c3.6 0 3.8-.2 3.8-3.7v-11.9h-3.7c-25.6-.1-51.3-.1-76.9-.1-.9 0-1.8.3-2.7.6-11.6 4.3-23.1 8.7-34.7 13.1-.6.2-1.2.4-1.9.4-1.1 0-1.9-.5-2.2-1.6s.7-1.3 1.3-1.6c10.6-5.6 20.9-11.5 30.6-18.5 11.1-7.9 21.4-16.5 29.6-27.5 2.1-2.8 3.8-5.8 5.6-8.8 0-.1.1-.5.4-1.1ZM548.375 448.676c.3.6.8 1.3.9 1.9.5 3 1.1 6 1.4 9 .3 3.1 1.5 5.3 4.1 7.2 3.6 2.6 3.1 1.8 1.9 6-.7 2.6-1.8 5.2-3 7.6-2.6 5.2-7.2 7.6-12.8 8.2-2.5.3-5.1.3-7.6.3h-95.1c-1.9 0-3.9-.2-5.8-.7-7.3-1.7-11.6-6.6-11.9-14.4-.4-10.2-.1-20.4-.1-30.8h87.4c2.667 0 4-1.333 4-4v-8.8c0-.5 0-1-.1-1.6h-89.4c-.4-2.4-.6-4.7-1.1-6.9-.5-2.2-1.4-4.3-3.7-5.4-.6-.3-1.3-.5-2-.7v-.4c.6-.1 1.1-.2 1.7-.2h119.7c1.3 0 2.7 0 4 .2 2.2.3 3.2 1.3 3.5 3.5.1.9.1 1.8.1 2.6v19.9c-.2 8.2-4 12.4-12.2 13.5-2.5.3-5 .5-7.5.5h-71.6c-.1.3-.2.5-.2.7v12.6c0 1.9.5 2.3 2.3 2.5h83.2c2 0 3.4-.8 4.4-2.4 1.9-3.1 3-6.6 3.5-10.2.4-2.7.7-5.3 1.1-8 .1-.5.3-1.1.4-1.6.2 0 .4 0 .5-.1ZM286.575 254.876v-17.7h-16.1v13.8h-76.2c0-.5-.1-1-.1-1.5-.2-15.4-.3-30.9-.5-46.3 0-1.2 0-2.3-.2-3.5-.3-2.6-.9-5.1-3.6-6.6h80.7v11.4h15.7v-15.8h22.2c0 .4.1.9.1 1.5 0 15.3.1 30.7-.1 46 0 2.9-.5 6-1.2 8.8-1.4 5-4.9 8.1-10 9.1-3.3.6-6.9.5-10.7.8Zm-67.6-35.2h5.7c2.2-.1 3.7-1.5 3.8-3.7s.1-4.5 0-6.7c-.1-2.1-1.5-3.6-3.7-3.6-3.9-.1-7.8-.1-11.6 0-2.2 0-3.6 1.6-3.7 3.8-.1 2.1-.1 4.3 0 6.4.1 2.4 1.5 3.8 3.9 3.8h5.6Zm0 19.2h5.6c2.3 0 3.8-1.4 3.9-3.7.1-2.2.1-4.5 0-6.7s-1.6-3.6-3.8-3.7h-11.5c-2.2 0-3.7 1.5-3.8 3.7s-.1 4.5 0 6.7 1.6 3.6 3.8 3.7c2 .1 3.9 0 5.8 0Zm26 0h5.6c2.5 0 4-1.5 4-3.9v-6.3c0-2.3-1.6-3.9-3.9-3.9h-11.3c-2.3 0-3.8 1.5-3.9 3.8-.1 2.2-.1 4.4 0 6.6.1 2.3 1.6 3.7 3.9 3.7 1.9.1 3.7 0 5.6 0Zm0-19.2h5.7c2.4-.1 3.8-1.5 3.9-3.9v-6.3c0-2.3-1.5-3.9-3.9-3.9-3.8-.1-7.6-.1-11.3 0-2.3 0-3.8 1.6-3.9 3.9-.1 2.1-.1 4.2 0 6.3.1 2.4 1.6 3.8 4 3.9h5.5Zm41.5 7.3v-11.8h-15.8v10.3c0 1.2.3 1.6 1.5 1.6 4.3-.1 8.6 0 13 0 .4-.1.8-.1 1.3-.1ZM210.875 276.376h72.3c1 0 1.5-.5 1.5-1.4v-6.6h-74v-9.7c.5 0 1-.1 1.5-.1h90.6c.9 0 1.9.1 2.8.2 1.9.2 2.9 1 2.9 2.9.1 5.7.1 11.3-.1 17-.1 3.4-2.3 5.8-5.7 6.5-2.8.6-5.7.8-8.6.8-18.2.1-36.5 0-54.7 0h-2c0 2.8-.1 5.5.1 8.2 0 .4.7 1 1.2 1.2.6.2 1.3.1 1.9.1h70.5c1 6.5-3 11.7-9.7 12.9-1.6.3-3.3.4-5 .4h-69c-1.4 0-2.9-.1-4.2-.3-5.6-.9-9.1-4.5-9.6-10.1-.3-3.6-.1-7.3-.1-11 0-1.2.1-2.4.1-3.7.1-2.8 0-5.4-2.7-7.3ZM506.975 389.276c-.3 4.1-1.1 7.8-4.2 10.6-1.5 1.4-3.4 1.8-5.5 1.8h-69c-2.2 0-4.4-.2-6.6-.6-7.6-1.5-12.3-6.9-12.4-14.6-.2-8.6-.1-17.3-.1-25.9 0-5.8-.4-11.6-1.7-17.3-.4-1.7-.8-3.3-1.3-5-1-3.1-2.2-6.1-4.8-8.5h40.1v55.6c0 3.8.2 3.9 4 3.9h61.5Z"></path><path d="M373.775 356.076h24.2c1.2 4.8-1.2 10.5-5.6 13.2-3.2 2-6.7 2.7-10.4 2.9-2.6.1-5.3 0-8.2 0v1.9c-.1 4.7.1 9.4-.4 14-1.4 12.3-8.6 19-21.1 19.9-3.4.2-6.8 0-10.3 0v-84.5h31.8v32.6ZM104.075 258.476v-49.7h-61.7c-.7-6.3-2.6-11.9-7.7-16.2h91c4.5.1 6.4 2 6.5 6.5.1 4.6 0 9.3 0 13.9 0 7.6.1 15.1-.1 22.7-.2 7.3-3.2 13.4-8.9 18.1-3.8 3.2-8.2 4.8-13.3 4.7h-5.8ZM381.075 239.476h15.7v74.8c-.5 0-.8.1-1.2.1h-13.1c-1.1 0-1.4-.3-1.4-1.4.1-4.5 0-9 0-13.5v-1.8c-.5.3-.8.5-1.1.7-7.3 5.2-15.6 7.9-24.5 8.1-11.3.3-22.7.1-34 .1-.2 0-.4 0-.7-.1v-11.1c.5 0 1.1-.1 1.6-.1 9.7 0 19.4.2 29-.1 9.1-.3 17.5-3.2 25-8.5 3.2-2.3 4.8-5.3 4.8-9.5-.2-12-.1-23.9-.1-35.9v-1.8Z"></path><path d="M348.575 286.176c-7.4-.1-14-2.4-19.3-7.6-10.2-10-8.8-26.2 3-34.6 9.6-6.8 23.6-6.8 33.2.1 13.7 9.9 12.6 29.3-2.1 38.1-4.6 2.7-9.5 4-14.8 4Zm-.7-37.4c-4 .1-7.5 2.3-9.6 6.6-1.6 3.3-1.8 6.9-1.2 10.4 1 5.7 5.3 9.9 10.7 10.3 5.7.4 10.4-3 12.2-8.8 1-3.5 1-6.9-.2-10.4-1.7-4.9-6-8.1-11.9-8.1Z"></path></g></svg><style>@media (prefers-color-scheme: light) { :root { filter: none; } }
@media (prefers-color-scheme: dark) { :root { filter: none; } }
</style></svg>